PathFileType	4	(X/Y/Z)	OpenSim_Sub04_EMGStiffKnee_Magnet.trc
DataRate	CameraRate	NumFrames	NumMarkers	Units	OrigDataRate	OrigDataStartFrame	OrigNumFrames
100	100	37	8	m	100	1	8277
Frame#	Time	torso_imu_offset_imu	pelvis_imu_offset_imu	tibia_r_imu_offset_imu	femur_r_imu_offset_imu	tibia_l_imu_offset_imu	femur_l_imu_offset_imu	toes_r_imu_offset_imu	toes_l_imu_offset_imu
				X1	Y1	Z1	X2	Y2	Z2	X3	Y3	Z3	X4	Y4	Z4	X5	Y5	Z5	X6	Y6	Z6	X7	Y7	Z7	X8		Y8	Z8	

1	0	0.90460649	0.20978190	-0.23176046	-0.63151948	0.19811213	-0.65376087	-0.52722336	-0.58694332	-0.24214991	-0.78308776	-0.34338086	0.08524787	-0.65265190	0.45257860	0.20940441	-0.66612189	0.27030540	0.41391658	-0.67468627	-0.19641953	-0.34477354	-0.65073919	-0.38345350	-0.31712716
2	0.01000000	0.90629151	0.21011032	-0.23413247	-0.62995469	0.19336450	-0.65384930	-0.52871149	-0.58876754	-0.23816354	-0.78306653	-0.33869104	0.08210294	-0.65740566	0.45280779	0.20994470	-0.66812043	0.27410428	0.42206966	-0.67686806	-0.19726427	-0.34259255	-0.64818404	-0.38224037	-0.31874636
3	0.02000000	0.90943558	0.21173884	-0.23625153	-0.63144001	0.19273814	-0.65577016	-0.53178831	-0.58801640	-0.24010095	-0.77864523	-0.34296038	0.07858748	-0.65660047	0.45274125	0.21452030	-0.66914651	0.26959823	0.42109040	-0.67491198	-0.19664937	-0.34049049	-0.65239914	-0.37905840	-0.32024039
4	0.03000000	0.90658679	0.21093809	-0.23211603	-0.63240376	0.19318658	-0.66188193	-0.52940540	-0.58971550	-0.24210479	-0.77868378	-0.34067583	0.08392438	-0.65561685	0.45277820	0.20690658	-0.66869178	0.26542366	0.41810523	-0.67475413	-0.19850850	-0.33914572	-0.65030188	-0.38091317	-0.31865632
5	0.04000000	0.90962012	0.20595206	-0.23527937	-0.63362396	0.19150043	-0.66160549	-0.53125235	-0.58971198	-0.23792188	-0.77629840	-0.33333879	0.08391514	-0.65404002	0.45269695	0.20879686	-0.66908835	0.26822538	0.41179856	-0.67666786	-0.19681624	-0.34031037	-0.64870871	-0.38244579	-0.31678584
6	0.05000000	0.90622722	0.20976156	-0.23820451	-0.63409578	0.19266994	-0.65690460	-0.53161820	-0.58802696	-0.24111555	-0.77453838	-0.33585787	0.08484045	-0.65531696	0.45325964	0.21556498	-0.66835318	0.27327657	0.41489492	-0.67494056	-0.19635542	-0.34236732	-0.65046315	-0.38050229	-0.31981007
7	0.06000000	0.90468201	0.21751595	-0.23636973	-0.63074415	0.19532342	-0.65691098	-0.53447209	-0.58872880	-0.23746691	-0.77792210	-0.33864149	0.08123956	-0.65880391	0.45795588	0.21114060	-0.66497718	0.26815397	0.42089963	-0.67484004	-0.19399872	-0.33874200	-0.65077506	-0.38097381	-0.31544187
8	0.07000000	0.90726563	0.21222940	-0.23596220	-0.63254098	0.19519662	-0.65411025	-0.53505169	-0.58708773	-0.23705620	-0.77658636	-0.34375442	0.07579632	-0.65633640	0.45673623	0.20949624	-0.66645909	0.26668832	0.41889983	-0.67696943	-0.19836333	-0.34001795	-0.64722362	-0.38072596	-0.31798768
9	0.08000000	0.90369411	0.20895759	-0.23933597	-0.63447243	0.19329445	-0.65196978	-0.53003442	-0.58757942	-0.24289693	-0.77863760	-0.34438447	0.08337778	-0.65655610	0.45060220	0.21472818	-0.66927820	0.27163176	0.41540182	-0.67340426	-0.20004757	-0.33683094	-0.64189085	-0.38054435	-0.32480815
10	0.09000000	0.90422816	0.21548925	-0.24547505	-0.63007641	0.19526281	-0.65692486	-0.52526227	-0.58700959	-0.24441958	-0.77753538	-0.34288785	0.08345770	-0.65716871	0.45191358	0.21464005	-0.66979586	0.27050328	0.41918576	-0.67463915	-0.19498776	-0.33713465	-0.64177961	-0.38081714	-0.31982121
11	0.10000000	0.90447373	0.21518753	-0.24293507	-0.63538455	0.19505869	-0.65899239	-0.53188061	-0.58907184	-0.23947562	-0.77427527	-0.34220252	0.08276068	-0.65391870	0.45170349	0.20982162	-0.67180238	0.27086712	0.42622538	-0.67955338	-0.19727550	-0.34618621	-0.64758783	-0.37963296	-0.32226614
12	0.11000000	0.90265218	0.21721950	-0.24179918	-0.63639864	0.19390679	-0.65937621	-0.53221365	-0.58715979	-0.23990592	-0.77727729	-0.34054805	0.08629285	-0.65421988	0.45123246	0.21105549	-0.66902577	0.27026549	0.41882134	-0.67492882	-0.19803638	-0.34419112	-0.64985634	-0.37845153	-0.32296847
13	0.12000000	0.90364830	0.21543510	-0.24351197	-0.63267952	0.19240202	-0.65479441	-0.52398855	-0.58697863	-0.24285406	-0.77994457	-0.34247776	0.08463955	-0.65602103	0.45387605	0.21008394	-0.66546231	0.26547029	0.41713702	-0.67105584	-0.19832275	-0.34467630	-0.64788433	-0.37807555	-0.31685984
14	0.13000000	0.90069188	0.21477086	-0.24359430	-0.63497715	0.19352852	-0.65268790	-0.52820514	-0.58961533	-0.24271744	-0.77796342	-0.34126805	0.08070256	-0.65495599	0.45640835	0.21258412	-0.66259513	0.26782896	0.41833758	-0.67414219	-0.19641636	-0.34448656	-0.64703522	-0.38106616	-0.31517153
15	0.14000000	0.90007843	0.21973097	-0.24158269	-0.63502877	0.19684364	-0.65245262	-0.53024387	-0.58449805	-0.24031578	-0.77836888	-0.33786081	0.07869457	-0.65109588	0.45627117	0.21548907	-0.66496117	0.26935575	0.42126141	-0.67775603	-0.19865680	-0.33835195	-0.64510842	-0.38251158	-0.31414980
16	0.15000000	0.90509240	0.21773713	-0.24472544	-0.63319566	0.19454291	-0.64829889	-0.53142037	-0.58515083	-0.23739306	-0.77845357	-0.34152848	0.08398128	-0.65542386	0.45456223	0.21373012	-0.66385655	0.26601653	0.42045178	-0.67754970	-0.19715758	-0.34025239	-0.64789759	-0.38005565	-0.32047439
17	0.16000000	0.90283235	0.21498537	-0.24625230	-0.63470934	0.19493833	-0.65205659	-0.53126941	-0.58738238	-0.23818174	-0.77679421	-0.34116142	0.08431244	-0.66104569	0.45549066	0.21276485	-0.66673298	0.26600451	0.41441960	-0.67500528	-0.19554326	-0.34391186	-0.65197421	-0.38226781	-0.32103851
18	0.17000000	0.90200659	0.21657375	-0.24237288	-0.63585848	0.19538276	-0.65457725	-0.53002573	-0.58973466	-0.23736999	-0.77797620	-0.33923661	0.08557359	-0.65272424	0.45266187	0.21182149	-0.66869276	0.26936132	0.42113883	-0.67369930	-0.19769950	-0.34531881	-0.65158370	-0.38164484	-0.31218271
19	0.18000000	0.90100630	0.21901376	-0.24482670	-0.63603410	0.19293502	-0.65407404	-0.52880179	-0.59002523	-0.24037768	-0.77478513	-0.34244828	0.08654744	-0.65600559	0.45069036	0.20999682	-0.66401896	0.26711723	0.41796384	-0.67514838	-0.20192135	-0.34140229	-0.64961838	-0.38314494	-0.31673627
20	0.19000000	0.89923934	0.21962707	-0.24532883	-0.63421299	0.19675853	-0.65320033	-0.52862472	-0.58651068	-0.24151956	-0.77428117	-0.34294165	0.08053638	-0.65611428	0.45563544	0.21311222	-0.66979727	0.26815952	0.41875458	-0.67602881	-0.19990786	-0.33768566	-0.65210303	-0.38383979	-0.31930834
21	0.20000000	0.90123507	0.22156895	-0.24776274	-0.63622568	0.19477535	-0.65081815	-0.53055696	-0.58914043	-0.24026084	-0.77906119	-0.34364887	0.07821391	-0.65279453	0.45595462	0.21389054	-0.66963795	0.27282545	0.41849186	-0.67762137	-0.19888533	-0.33913609	-0.64934761	-0.37901091	-0.31752888
22	0.21000000	0.89987111	0.21922988	-0.25016058	-0.63576316	0.19311471	-0.65481020	-0.52880268	-0.58738437	-0.23814257	-0.77762731	-0.33980786	0.08084872	-0.65391186	0.45660132	0.21355149	-0.66544269	0.27057369	0.41902660	-0.67641521	-0.19937394	-0.34245237	-0.64525179	-0.37950356	-0.31630762
23	0.22000000	0.89792999	0.22112126	-0.24366106	-0.63520419	0.19661381	-0.65340153	-0.52879145	-0.58573710	-0.24305287	-0.77323981	-0.33715982	0.08499283	-0.65190779	0.45342071	0.21440412	-0.67020842	0.26939178	0.42404661	-0.67335867	-0.19792328	-0.34595669	-0.64571324	-0.38208724	-0.31595425
24	0.23000000	0.90129130	0.22099094	-0.24403730	-0.63842132	0.19541866	-0.64869728	-0.53059063	-0.58804047	-0.24338057	-0.77546820	-0.33993350	0.08445898	-0.65209124	0.45341021	0.21145705	-0.66629788	0.27005483	0.42250544	-0.67537572	-0.19695144	-0.33979149	-0.64741402	-0.38362086	-0.31788752
25	0.24000000	0.90092506	0.21962087	-0.24875724	-0.63819526	0.19682266	-0.64920884	-0.52853178	-0.58599728	-0.23593911	-0.77646777	-0.34289930	0.08299964	-0.65336152	0.45663284	0.21003182	-0.66533229	0.26803529	0.42477937	-0.67613382	-0.19664409	-0.33839485	-0.64619395	-0.38094720	-0.31624443
26	0.25000000	0.89930333	0.21958610	-0.24668350	-0.63591287	0.19896233	-0.65226325	-0.53008552	-0.58701468	-0.23486048	-0.77588659	-0.33967768	0.08329858	-0.65508706	0.45583907	0.21168955	-0.66584307	0.26968326	0.42299470	-0.67697399	-0.19884533	-0.34477585	-0.65022795	-0.37774734	-0.31484175
27	0.26000000	0.90109098	0.21401599	-0.24442764	-0.63333725	0.20190714	-0.65329804	-0.53126966	-0.59087776	-0.24002273	-0.77773060	-0.33846047	0.08234191	-0.65295636	0.45634090	0.21249500	-0.66421619	0.27115267	0.42181769	-0.67850071	-0.19523008	-0.34298799	-0.64776127	-0.38110357	-0.31605380
28	0.27000000	0.90227762	0.21939570	-0.24197406	-0.63399089	0.20034913	-0.65370498	-0.52967911	-0.59143542	-0.23803098	-0.77698025	-0.34090280	0.07924802	-0.65331276	0.45512734	0.21448122	-0.66483943	0.26966880	0.42199128	-0.67115931	-0.19723399	-0.33863180	-0.64742772	-0.38201627	-0.31895516
29	0.28000000	0.90141942	0.22035195	-0.24208236	-0.63343321	0.19759461	-0.65824393	-0.52976105	-0.58506706	-0.23506860	-0.77868703	-0.33668382	0.08046349	-0.65374309	0.46030361	0.21888524	-0.66369861	0.26809311	0.42219918	-0.66988457	-0.19796284	-0.34038744	-0.65083224	-0.38160036	-0.31947192
30	0.29000000	0.90445909	0.21679262	-0.24449914	-0.63525441	0.19780981	-0.65875479	-0.53264059	-0.58743245	-0.23651848	-0.77865201	-0.33338855	0.08379164	-0.65206174	0.45866259	0.21701469	-0.66754752	0.26983801	0.42091925	-0.67600567	-0.19865851	-0.34281706	-0.65027445	-0.38357442	-0.32207067
31	0.30000000	0.90548897	0.21917993	-0.23902634	-0.63362341	0.19942877	-0.65159252	-0.53248623	-0.58961814	-0.23191171	-0.77705479	-0.33962036	0.07387370	-0.65231506	0.45400592	0.21432587	-0.66574482	0.27023173	0.41948144	-0.67537676	-0.19462824	-0.34299959	-0.64940633	-0.38189447	-0.31665129
32	0.31000000	0.90397526	0.21871302	-0.23347652	-0.63228443	0.19877950	-0.64732001	-0.52955312	-0.58403298	-0.23793456	-0.77676594	-0.34057202	0.07329032	-0.65203751	0.45587362	0.21526458	-0.66306495	0.26733881	0.41952511	-0.67323566	-0.19302617	-0.33983985	-0.64684562	-0.38056519	-0.31748042
33	0.32000000	0.90320260	0.21819335	-0.23612434	-0.63390060	0.20030699	-0.65219342	-0.52999418	-0.58752707	-0.24478569	-0.77976269	-0.33709405	0.07867329	-0.65313867	0.45168624	0.21343568	-0.66255524	0.26710428	0.42078825	-0.67785173	-0.19809121	-0.34115850	-0.64504908	-0.38054151	-0.32617716
34	0.33000000	0.90835633	0.21390370	-0.23504986	-0.63481668	0.20089078	-0.65577129	-0.53088828	-0.59027375	-0.24242430	-0.78014804	-0.33915779	0.07597440	-0.65536121	0.45503116	0.21471646	-0.66754860	0.27026431	0.42295413	-0.67807042	-0.19569748	-0.34536290	-0.64161106	-0.38098926	-0.32086656
35	0.34000000	0.90639796	0.21360623	-0.22913273	-0.63518156	0.19675351	-0.65623993	-0.53224158	-0.58744956	-0.23912997	-0.77536565	-0.33923266	0.07619973	-0.65180800	0.45792512	0.21773860	-0.66688388	0.26924072	0.42569359	-0.67254908	-0.19465386	-0.34495839	-0.64507344	-0.37894731	-0.31488796
36	0.35000000	0.90428672	0.21267738	-0.22909560	-0.63256185	0.20118192	-0.65078749	-0.52486617	-0.59099537	-0.24282932	-0.77665285	-0.33659483	0.07827205	-0.65198666	0.45536535	0.21578177	-0.66512925	0.27096844	0.41803464	-0.67747762	-0.19493620	-0.34264668	-0.64671770	-0.38184600	-0.31899746
37	0.36000000	0.90986579	0.21080063	-0.22679785	-0.63162919	0.19862367	-0.65387886	-0.52387038	-0.59077421	-0.24286050	-0.77524884	-0.33565876	0.08239308	-0.65390998	0.45749273	0.21478933	-0.66704536	0.27112289	0.42191421	-0.67314369	-0.19524683	-0.34036390	-0.64919215	-0.38468470	-0.32046858
